
<svg height="100%" stroke-miterlimit="10" style="fill-rule:nonzero;clip-rule:evenodd;stroke-linecap:round;stroke-linejoin:round;" version="1.1" viewBox="0 0 1366 1024" width="100%" xml:space="preserve" xmlns="http://www.w3.org/2000/svg" xmlns:vectornator="http://vectornator.io" xmlns:xlink="http://www.w3.org/1999/xlink">
<defs/>
<clipPath id="ArtboardFrame">
<rect height="1024" width="1366" x="0" y="0"/>
</clipPath>
<g clip-path="url(#ArtboardFrame)" id="Layer-1" vectornator:layerName="Layer 1">
<path d="M-274.721 554.525C-302.994 559.93-275.329 496.957-275.329 468.172C-275.329 384.219-288.477 304.413-237.263 232.889C-11.3821-82.568 433.415-260.361 433.415-690.195" fill="none" opacity="1" stroke="#ffffff" stroke-linecap="round" stroke-linejoin="round" stroke-width="3.1"/>
<path d="M-253.851 622.421C-282.124 627.826-254.459 564.853-254.459 536.068C-254.459 452.115-267.607 372.309-216.393 300.786C9.48851-14.6712 454.285-192.465 454.285-622.298" fill="none" opacity="1" stroke="#ffffff" stroke-linecap="round" stroke-linejoin="round" stroke-width="3.1"/>
<path d="M-232.98 690.318C-261.253 695.723-233.588 632.75-233.588 603.965C-233.588 520.012-246.736 440.206-195.522 368.683C30.3592 53.2255 475.156-124.568 475.156-554.401" fill="none" opacity="1" stroke="#ffffff" stroke-linecap="round" stroke-linejoin="round" stroke-width="3.1"/>
<path d="M-212.109 758.215C-240.382 763.62-212.717 700.647-212.717 671.862C-212.717 587.909-225.865 508.103-174.651 436.579C51.2298 121.122 496.027-56.6711 496.027-486.505" fill="none" opacity="1" stroke="#ffffff" stroke-linecap="round" stroke-linejoin="round" stroke-width="3.1"/>
<path d="M-191.239 826.111C-219.512 831.517-191.847 768.543-191.847 739.758C-191.847 655.806-204.995 576-153.781 504.476C72.1005 189.019 516.897 11.2256 516.897-418.608" fill="none" opacity="1" stroke="#ffffff" stroke-linecap="round" stroke-linejoin="round" stroke-width="3.1"/>
<path d="M-170.368 894.008C-198.641 899.413-170.976 836.44-170.976 807.655C-170.976 723.702-184.124 643.896-132.91 572.373C92.9712 256.916 537.768 79.1223 537.768-350.711" fill="none" opacity="1" stroke="#ffffff" stroke-linecap="round" stroke-linejoin="round" stroke-width="3.1"/>
<path d="M-149.497 961.905C-177.77 967.31-150.105 904.337-150.105 875.552C-150.105 791.599-163.253 711.793-112.039 640.27C113.842 324.812 558.639 147.019 558.639-282.815" fill="none" opacity="1" stroke="#ffffff" stroke-linecap="round" stroke-linejoin="round" stroke-width="3.1"/>
<path d="M-128.627 1029.8C-156.9 1035.21-129.235 972.234-129.235 943.449C-129.235 859.496-142.383 779.69-91.1686 708.166C134.712 392.709 579.509 214.916 579.509-214.918" fill="none" opacity="1" stroke="#ffffff" stroke-linecap="round" stroke-linejoin="round" stroke-width="3.1"/>
<path d="M-107.756 1097.7C-136.029 1103.1-108.364 1040.13-108.364 1011.35C-108.364 927.392-121.512 847.586-70.298 776.063C155.583 460.606 600.38 282.812 600.38-147.021" fill="none" opacity="1" stroke="#ffffff" stroke-linecap="round" stroke-linejoin="round" stroke-width="3.1"/>
<path d="M-86.8854 1165.6C-115.158 1171-87.4935 1108.03-87.4935 1079.24C-87.4935 995.289-100.641 915.483-49.4273 843.96C176.454 528.503 621.251 350.709 621.251-79.1245" fill="none" opacity="1" stroke="#ffffff" stroke-linecap="round" stroke-linejoin="round" stroke-width="3.1"/>
<path d="M-66.0147 1233.49C-94.2878 1238.9-66.6228 1175.92-66.6228 1147.14C-66.6228 1063.19-79.7705 983.38-28.5566 911.856C197.324 596.399 642.121 418.606 642.121-11.2277" fill="none" opacity="1" stroke="#ffffff" stroke-linecap="round" stroke-linejoin="round" stroke-width="3.1"/>
<path d="M-45.1441 1301.39C-73.4171 1306.79-45.7521 1243.82-45.7521 1215.04C-45.7521 1131.08-58.8999 1051.28-7.68597 979.753C218.195 664.296 662.992 486.503 662.992 56.669" fill="none" opacity="1" stroke="#ffffff" stroke-linecap="round" stroke-linejoin="round" stroke-width="3.1"/>
<path d="M-24.2734 1369.29C-52.5464 1374.69-24.8815 1311.72-24.8815 1282.93C-24.8815 1198.98-38.0292 1119.17 13.1847 1047.65C239.066 732.193 683.863 554.399 683.863 124.566" fill="none" opacity="1" stroke="#ffffff" stroke-linecap="round" stroke-linejoin="round" stroke-width="3.1"/>
<path d="M-3.40275 1437.18C-31.6758 1442.59-4.0108 1379.61-4.0108 1350.83C-4.0108 1266.88-17.1586 1187.07 34.0554 1115.55C259.936 800.089 704.733 622.296 704.733 192.462" fill="none" opacity="1" stroke="#ffffff" stroke-linecap="round" stroke-linejoin="round" stroke-width="3.1"/>
<path d="M17.4679 1505.08C-10.8051 1510.48 16.8599 1447.51 16.8599 1418.73C16.8599 1334.77 3.71211 1254.97 54.926 1183.44C280.807 867.986 725.604 690.193 725.604 260.359" fill="none" opacity="1" stroke="#ffffff" stroke-linecap="round" stroke-linejoin="round" stroke-width="3.1"/>
<path d="M38.3386 1572.98C10.0656 1578.38 37.7305 1515.41 37.7305 1486.62C37.7305 1402.67 24.5828 1322.86 75.7967 1251.34C301.678 935.883 746.475 758.09 746.475 328.256" fill="none" opacity="1" stroke="#ffffff" stroke-linecap="round" stroke-linejoin="round" stroke-width="3.1"/>
<path d="M59.2092 1640.87C30.9362 1646.28 58.6012 1583.3 58.6012 1554.52C58.6012 1470.57 45.4534 1390.76 96.6673 1319.24C322.548 1003.78 767.345 825.986 767.345 396.153" fill="none" opacity="1" stroke="#ffffff" stroke-linecap="round" stroke-linejoin="round" stroke-width="3.1"/>
<path d="M80.0799 1708.77C51.8069 1714.17 79.4718 1651.2 79.4718 1622.42C79.4718 1538.46 66.3241 1458.66 117.538 1387.13C343.419 1071.68 788.216 893.883 788.216 464.049" fill="none" opacity="1" stroke="#ffffff" stroke-linecap="round" stroke-linejoin="round" stroke-width="3.1"/>
<path d="M100.951 1776.67C72.6775 1782.07 100.343 1719.1 100.343 1690.31C100.343 1606.36 87.1948 1526.55 138.409 1455.03C364.29 1139.57 809.087 961.78 809.087 531.946" fill="none" opacity="1" stroke="#ffffff" stroke-linecap="round" stroke-linejoin="round" stroke-width="3.1"/>
<path d="M121.821 1844.56C93.5482 1849.97 121.213 1786.99 121.213 1758.21C121.213 1674.26 108.065 1594.45 159.279 1522.93C385.16 1207.47 829.957 1029.68 829.957 599.843" fill="none" opacity="1" stroke="#ffffff" stroke-linecap="round" stroke-linejoin="round" stroke-width="3.1"/>
<path d="M142.692 1912.46C114.419 1917.86 142.084 1854.89 142.084 1826.11C142.084 1742.15 128.936 1662.35 180.15 1590.82C406.031 1275.37 850.828 1097.57 850.828 667.739" fill="none" opacity="1" stroke="#ffffff" stroke-linecap="round" stroke-linejoin="round" stroke-width="3.1"/>
<path d="M163.563 1980.36C135.29 1985.76 162.954 1922.79 162.954 1894C162.954 1810.05 149.807 1730.24 201.021 1658.72C426.902 1343.26 871.699 1165.47 871.699 735.636" fill="none" opacity="1" stroke="#ffffff" stroke-linecap="round" stroke-linejoin="round" stroke-width="3.1"/>
<path d="M184.433 2048.25C156.16 2053.66 183.825 1990.68 183.825 1961.9C183.825 1877.95 170.677 1798.14 221.891 1726.62C447.772 1411.16 892.569 1233.37 892.569 803.533" fill="none" opacity="1" stroke="#ffffff" stroke-linecap="round" stroke-linejoin="round" stroke-width="3.1"/>
</g>
</svg>
